<?xml version="1.0" encoding="UTF-8" standalone="no"?>
<svg width="200px" height="200px" viewBox="0 0 200 200" version="1.1" xmlns="http://www.w3.org/2000/svg" xmlns:xlink="http://www.w3.org/1999/xlink">
    <!-- Generator: Sketch 46.1 (44463) - http://www.bohemiancoding.com/sketch -->
    <title>Email bttn</title>
    <desc>Created with Sketch.</desc>
    <defs>
        <ellipse id="path-1" cx="99.9475983" cy="100.070175" rx="99.3537118" ry="99.3684211"></ellipse>
    </defs>
    <g id="Symbols" stroke="none" stroke-width="1" fill="none" fill-rule="evenodd">
        <g id="Email-bttn">
            <g id="Group">
                <g>
                    <mask id="mask-2" fill="white">
                        <use xlink:href="#path-1"></use>
                    </mask>
                    <use id="Mask" fill-opacity="0" fill="#F8E71C" xlink:href="#path-1"></use>
                    <g mask="url(#mask-2)">
                        <g transform="translate(-17.000000, -20.000000)">
                            <ellipse id="Mask" fill="#F8E71C" cx="116.947598" cy="120.070175" rx="99.3537118" ry="99.3684211"></ellipse>
                            <path d="M148.411382,201.141132 L144.544715,190.208762 L146.236923,189.610068 L150.103591,200.542438 L148.411382,201.141132 Z M156.971189,197.41558 L151.934218,186.970789 L153.580085,186.176839 L161.768044,191.205136 C162.193452,191.466787 162.470407,191.656394 162.598919,191.773964 L158.707033,183.703651 L160.250944,182.958884 L165.287915,193.403675 L163.656613,194.190599 L155.454088,189.169328 C155.028681,188.907678 154.751726,188.71807 154.623214,188.6005 L158.515099,196.670813 L156.971189,197.41558 Z M177.606166,182.90574 L173.005499,171.293444 L174.297263,170.070377 L185.638591,175.300483 L184.264624,176.601382 L181.148702,175.097401 L177.660938,178.399684 L178.980134,181.604841 L177.606166,182.90574 Z M175.052142,172.161787 C175.21102,172.486475 175.372766,172.845558 175.537386,173.239046 L177.028194,176.860763 L179.646953,174.381271 L176.112808,172.694225 L175.052142,172.161787 Z M194.069606,161.461138 L183.964149,155.775915 L184.844158,154.211241 L189.086477,156.597924 L191.726503,151.9039 L187.484184,149.517216 L188.364193,147.952542 L198.46965,153.637765 L197.589641,155.202439 L193.150005,152.704747 L190.509979,157.398771 L194.949615,159.896463 L194.069606,161.461138 Z M192.266574,134.206604 L199.360686,136.549688 C200.660768,136.979087 201.543206,137.710541 202.008028,138.744073 C202.47285,139.777605 202.493973,140.934253 202.071399,142.21405 C201.648825,143.493848 200.943988,144.407882 199.956865,144.95618 C198.969742,145.504477 197.826157,145.563926 196.526075,145.134528 L189.431963,142.791443 L189.989757,141.102118 L197.037804,143.429988 C197.815805,143.686951 198.527389,143.663656 199.172575,143.360102 C199.817762,143.056548 200.272191,142.505483 200.535877,141.706889 C200.799563,140.908295 200.762631,140.19494 200.425078,139.566801 C200.087525,138.938662 199.529757,138.496118 198.751755,138.239155 L191.703708,135.911285 L192.266574,134.206604 Z M204.71819,123.664336 L199.528175,125.715528 L199.235309,127.977065 L204.078453,128.604433 L203.847898,130.384793 L192.34944,128.895313 L192.964252,124.147688 C193.119341,122.950082 193.544258,122.040225 194.239017,121.418088 C194.933776,120.795951 195.762252,120.547208 196.724471,120.671851 C197.52632,120.775721 198.181726,121.107961 198.690707,121.668581 C199.199687,122.229202 199.511736,122.946413 199.62686,123.820236 L204.984055,121.611309 L204.71819,123.664336 Z M194.119537,127.314382 L197.695766,127.777637 L198.065484,124.922646 C198.257961,123.436332 197.760838,122.616324 196.574101,122.462598 C195.376673,122.307486 194.681731,122.973077 194.489255,124.459391 L194.119537,127.314382 Z M203.851367,107.92338 L199.114826,110.874677 L199.233408,113.152019 L204.110396,112.897999 L204.203747,114.6908 L192.624937,115.293887 L192.376001,110.513085 C192.313206,109.307111 192.567583,108.335658 193.13914,107.598695 C193.710697,106.861733 194.480935,106.468024 195.449878,106.417556 C196.25733,106.3755 196.961792,106.584432 197.563286,107.044358 C198.164779,107.504285 198.600709,108.153672 198.871089,108.992539 L203.743719,105.856007 L203.851367,107.92338 Z M194.081887,113.420338 L197.683107,113.232767 L197.533408,110.357825 C197.455475,108.861125 196.819003,108.143908 195.623974,108.206152 C194.418178,108.268956 193.854255,109.048697 193.932189,110.545397 L194.081887,113.420338 Z M201.151731,96.7949103 L196.621334,97.8744528 L190.761173,103.211212 L190.303934,101.291802 L194.157551,97.9295141 C194.363774,97.7251973 194.586727,97.5446059 194.826417,97.3877343 L193.988898,97.2215348 L189.029663,95.9426248 L188.572424,94.0232144 L196.20907,96.1438368 L200.739466,95.0642943 L201.151731,96.7949103 Z M192.339561,83.2589831 L193.034265,84.8791692 L192.781612,84.9875335 C192.355569,85.1702665 191.920659,85.236553 191.476868,85.1863951 C191.033076,85.1362372 190.501851,84.9505418 189.883175,84.6293033 C189.207872,84.2854254 188.665671,84.0809738 188.256558,84.0159423 C187.847445,83.9509108 187.424919,84.0118854 186.988968,84.1988679 C186.543109,84.3901 186.254767,84.7161436 186.123933,85.1770083 C185.993099,85.637873 186.044529,86.1408076 186.278222,86.685827 C186.503418,87.2110276 186.837573,87.5868332 187.280696,87.8132552 C187.72382,88.0396772 188.21289,88.0381489 188.747921,87.8086704 C188.955989,87.7194287 189.158385,87.6032904 189.355115,87.4602519 L190.262087,88.7958198 C190.025744,89.0379717 189.704463,89.2461613 189.298236,89.420395 C188.505598,89.7603633 187.673608,89.741796 186.802241,89.3646925 C185.930874,88.987589 185.282751,88.3035753 184.857854,87.3126309 C184.407463,86.2622298 184.313112,85.3172361 184.574798,84.4776216 C184.836485,83.6380071 185.388408,83.0376007 186.230587,82.6763844 C186.854789,82.4086594 187.455665,82.31225 188.033233,82.3871531 C188.610801,82.4620563 189.371011,82.7372455 190.313887,83.2127288 C190.684806,83.3938626 191.02102,83.487225 191.322536,83.4928187 C191.624053,83.4984124 191.963058,83.420468 192.339561,83.2589831 Z M196.129797,83.6042663 L194.316646,84.3819398 L193.583701,82.6725691 L195.396852,81.8948957 L196.129797,83.6042663 Z M115.249127,43.4347956 C115.247693,42.9172512 115.001281,42.5001278 114.509884,42.1834129 C114.018486,41.866698 113.249657,41.6073627 112.203373,41.4053993 C110.930578,41.1609345 109.988881,40.7646065 109.378255,40.2164035 C108.767629,39.6682005 108.460991,38.9143034 108.458332,37.9546897 C108.455644,36.9842938 108.841454,36.1583942 109.615774,35.4769661 C110.390094,34.795538 111.413293,34.4530665 112.685401,34.4495412 C114.011413,34.4458665 115.084998,34.7798319 115.906189,35.4514474 C116.72738,36.1230629 117.241891,37.0030736 117.449739,38.0915058 L115.883413,38.9045118 C115.543838,36.9646462 114.484669,35.9971926 112.705873,36.002122 C111.962013,36.0041834 111.3642,36.1864402 110.912417,36.5488978 C110.460633,36.9113555 110.235476,37.356741 110.23694,37.8850676 C110.238553,38.4673051 110.471572,38.9141164 110.936003,39.2255149 C111.400434,39.5369134 112.15578,39.7935905 113.202064,39.9955539 C114.356213,40.218783 115.265554,40.6098096 115.930113,41.1686454 C116.594672,41.7274813 116.928231,42.4705216 116.9308,43.3977888 C116.933339,44.3142738 116.56617,45.059256 115.829284,45.6327578 C115.092397,46.2062596 114.136427,46.4946343 112.961343,46.4978907 C111.915627,46.5007886 111.020158,46.2525864 110.274909,45.7532766 C109.52966,45.2539668 108.994065,44.5465281 108.668109,43.6309394 L110.088853,42.8021635 C110.577952,44.2348486 111.539396,44.9491937 112.973213,44.9452203 C113.620048,44.9434278 114.161398,44.8098469 114.597279,44.5444736 C115.033161,44.2791004 115.250442,43.9092114 115.249127,43.4347956 Z M101.438291,36.3424862 L103.548681,47.7449941 L96.059439,49.1315223 L95.7680463,47.5571174 L101.492307,46.4973507 L100.909522,43.3485409 L95.6463819,44.3229376 L95.3579326,42.7644358 L100.621073,41.7900392 L99.9617599,38.2277494 L94.1897966,39.2963475 L93.9013472,37.7378457 L101.438291,36.3424862 Z M87.2677771,40.5008906 L91.3129003,51.3684747 L89.6004105,52.006085 L81.91486,46.2388392 C81.5155933,45.938798 81.2574453,45.7242803 81.1404083,45.5952797 L84.2659288,53.9922694 L82.6595224,54.5903817 L78.6143992,43.7227976 L80.3117343,43.0908299 L88.0124396,48.8524331 C88.4117063,49.1524744 88.6698543,49.3669921 88.7868913,49.4959926 L85.6613707,41.099003 L87.2677771,40.5008906 Z M72.3105961,48.1071924 L78.3983832,57.9763426 L75.5495524,59.7341647 C73.9989733,60.690923 72.4782702,61.0338094 70.9873976,60.7628344 C69.4965249,60.4918594 68.2671383,59.5718049 67.2992008,58.0026435 C66.3312633,56.4334821 66.0620674,54.9241256 66.491605,53.4745289 C66.9211427,52.0249322 67.9111862,50.8217728 69.4617653,49.8650145 L72.3105961,48.1071924 Z M70.2833041,51.2584488 C69.1731262,51.9434651 68.4777141,52.7874629 68.1970471,53.7904677 C67.9163801,54.7934724 68.135482,55.8776588 68.8543596,57.0430594 C69.5732372,58.20846 70.4437561,58.8907008 71.4659425,59.0898022 C72.4881289,59.2889035 73.5542951,59.0459497 74.664473,58.3609335 L76.0131949,57.5287278 L71.6320259,50.4262432 L70.2833041,51.2584488 Z M52.6500572,65.3762797 L61.4151956,72.9671855 L60.1661101,74.4099183 L50.1840093,70.9424117 L55.0321571,80.3397949 L53.7830716,81.7825277 L45.0179332,74.1916219 L46.1505786,72.8833811 L52.2262742,78.1451387 L51.3710131,76.6128786 L48.2676726,70.4380712 L49.4003179,69.1298304 L55.9651072,71.306556 C56.8684635,71.6467498 57.4146533,71.8559129 57.603693,71.9340515 L51.5279974,66.672294 L52.6500572,65.3762797 Z M42.0352564,81.3490105 L52.2631013,86.8109206 L48.6756831,93.5306252 L47.2634702,92.7764702 L50.0054459,87.6403903 L47.1810201,86.1320804 L44.6599258,90.8544206 L43.2619776,90.1078833 L45.783072,85.3855432 L42.587762,83.6791724 L39.8229365,88.8580529 L38.4249883,88.1115157 L42.0352564,81.3490105 Z M34.3114272,103.386022 L44.7428207,110.254183 L44.3868986,111.997262 L32.0982389,114.224807 L32.4768106,112.370804 L35.8914865,111.813721 L36.8524762,107.107407 L33.9328555,105.240025 L34.3114272,103.386022 Z M42.568537,110.71797 C42.2521048,110.54329 41.9135853,110.342092 41.5529684,110.114368 L38.2537647,108.004384 L37.5322135,111.538082 L41.3944213,110.890831 L42.568537,110.71797 Z M32.5823942,120.804361 L44.1759647,120.951234 L44.1528208,122.778664 L36.0022986,127.867438 C35.5784745,128.131646 35.285309,128.295067 35.1227934,128.357707 L44.0807266,128.47119 L44.0590164,130.185417 L32.4654458,130.038544 L32.4883849,128.227286 L40.639112,123.12234 C41.0629361,122.858132 41.3561015,122.694711 41.5186171,122.632071 L32.560684,122.518588 L32.5823942,120.804361 Z M36.7047397,146.946544 L47.7952476,143.56476 L50.0164254,150.851235 L48.4851,151.318176 L46.7873845,145.748896 L43.7247338,146.682777 L45.2856889,151.803421 L43.7698315,152.265646 L42.2088764,147.145002 L38.7440594,148.201515 L40.4559226,153.817205 L38.9400651,154.27943 L36.7047397,146.946544 Z M42.4342054,160.562768 L52.7757918,155.31947 L53.6385778,157.021685 L46.6530093,164.951554 L57.1847746,164.018075 L58.0475606,165.72029 L47.7059742,170.963588 L46.9236174,169.420054 L54.0920531,165.785579 L52.3503305,165.997742 L45.4612682,166.534945 L44.6789114,164.991411 L49.1770328,159.737054 C49.8336377,159.029405 50.2338515,158.602858 50.3776862,158.457401 L43.2092505,162.091876 L42.4342054,160.562768 Z M52.3310762,175.370007 L64.223358,171.555615 L65.3571107,172.926479 L59.3809567,183.894288 L58.1750561,182.436187 L59.883847,179.427371 L56.8227147,175.726038 L53.5369768,176.828107 L52.3310762,175.370007 Z M63.2202044,173.539901 C62.8856653,173.676731 62.5166215,173.814123 62.1130619,173.952081 L58.4002812,175.197544 L60.6987071,177.976659 L62.6180972,174.562739 L63.2202044,173.539901 Z M64.8115174,187.660587 L72.2015237,178.725046 L73.5846453,179.869275 L66.194639,188.804816 L64.8115174,187.660587 Z M72.4053724,193.098242 L78.7855631,183.41561 L80.2843261,184.403484 L74.7761837,192.762688 L79.6235343,195.957706 L78.7514859,197.281134 L72.4053724,193.098242 Z" id="IN-A-HURRY?-SEND-ME" fill="#000000" transform="translate(118.541147, 117.795322) rotate(34.000000) translate(-118.541147, -117.795322) "></path>
                            <path d="M93.1441048,135.596491 L141.786026,135.596491 L141.786026,105.578947 L93.1441048,105.578947 L93.1441048,135.596491 Z M95.1708515,108.32722 L95.1708515,107.580117 L139.759279,107.580117 L139.759279,108.32722 L117.465066,119.568457 L95.1708515,108.32722 Z M139.759279,110.575201 L139.759279,133.595322 L95.1708515,133.595322 L95.1708515,110.575201 L117.465066,121.816437 L139.759279,110.575201 Z" id="Page-1" fill="#161616" transform="translate(117.465066, 120.587719) rotate(-10.000000) translate(-117.465066, -120.587719) "></path>
                        </g>
                    </g>
                </g>
            </g>
        </g>
    </g>
</svg>